<?xml version="1.0" encoding="UTF-8"?>
<svg width="147px" height="31px" viewBox="0 0 147 31" version="1.1" xmlns="http://www.w3.org/2000/svg" xmlns:xlink="http://www.w3.org/1999/xlink">
    <title>Original Logo</title>
    <g id="Page-1" stroke="none" stroke-width="1" fill="none" fill-rule="evenodd">
        <g id="Splash" transform="translate(-200, -27)" fill-rule="nonzero">
            <g id="Original-Logo" transform="translate(200, 27.9509)">
                <g id="Group" transform="translate(0, 0)">
                    <path d="M11.7827096,0.716491971 L11.7827096,0.716491971 C16.4022751,0.857769492 20.2617007,4.48974944 20.402978,8.82874625 L21.0396189,28.3816695 L21.0396189,28.3816695 C16.4200533,28.240392 12.5606278,24.608412 12.4193505,20.2694152 L11.7827096,0.716491971 Z" id="Layer_1-2" fill="#FFFFFF" transform="translate(16.4112, 14.5491) rotate(157.4) translate(-16.4112, -14.5491)"></path>
                    <path d="M9.75928712,22.019582 C9.30319708,21.1183094 8.93030262,20.1925789 8.57077888,19.2644026 C8.08923375,17.9786552 6.7784669,17.0203317 5.17056186,16.7784472 C3.56265682,16.5365627 1.92483536,17.0513166 0.92194329,18.1137533 C-0.0809487848,19.17619 -0.282238328,20.6097405 0.399784732,21.8324793 C0.567409129,22.1448285 0.787447318,22.4362725 1.05346426,22.698288 C3.40111834,25.3362225 7.63798111,26.307683 11.3043478,25.0486897 L9.75928712,22.019582 Z" id="Layer_1-2" fill="#62D49F"></path>
                </g>
                <g id="Shape" transform="translate(33, 4.0491)" fill="#FFFFFF">
                    <path d="M6.43507923,17.5551624 L6.43507923,17.5551624 C6.87830106,17.5551624 7.31525088,17.5078803 7.7459287,17.4133162 C8.18078785,17.318752 8.4943882,17.2106787 8.68672975,17.0890962 L8.68672975,17.0890962 L8.68672975,14.1035703 L6.25946303,14.3534899 C5.6071743,14.3940174 5.08868838,14.5381151 4.70400528,14.7857832 C4.31932218,15.0379543 4.12698063,15.4117079 4.12698063,15.9070441 L4.12698063,15.9070441 C4.12698063,16.4023802 4.30886884,16.8009006 4.67264525,17.1026053 C5.04060299,17.4043101 5.62808099,17.5551624 6.43507923,17.5551624 Z M6.25946303,5.12672885 L6.25946303,5.12672885 C8.26232394,5.12672885 9.85959507,5.57703442 11.0512764,6.47764555 C12.2429577,7.37825667 12.8387984,8.7719524 12.8387984,10.6587327 L12.8387984,10.6587327 L12.8387984,17.7105179 C12.8387984,18.2283693 12.7133583,18.6471534 12.462478,18.9668704 C12.215779,19.2865873 11.900088,19.5612737 11.5154049,19.7909296 L11.5154049,19.7909296 C10.9383803,20.1646832 10.2212808,20.4596333 9.36410651,20.67578 C8.50693222,20.8919267 7.53058979,21 6.43507923,21 L6.43507923,21 C4.47403169,21 2.91021127,20.5857189 1.74361796,19.7571566 C0.581205986,18.9285944 0,17.6970087 0,16.0623995 L0,16.0623995 C0,14.6529431 0.40349912,13.5699582 1.21049736,12.8134448 C2.02167694,12.0569315 3.22381162,11.5976198 4.81690141,11.4355098 L4.81690141,11.4355098 L8.65536972,10.9964619 L8.65536972,10.6249598 C8.65536972,9.92248311 8.4003081,9.41588935 7.89018486,9.10517851 C7.38006162,8.79446767 6.65459947,8.63911225 5.71379842,8.63911225 L5.71379842,8.63911225 C4.98206426,8.63911225 4.26496479,8.7314249 3.5625,8.91605018 C2.86003521,9.10067546 2.23074384,9.31907366 1.67462588,9.57124477 L1.67462588,9.57124477 C1.44465229,9.40463171 1.2481294,9.15020907 1.08505722,8.80797684 C0.921985035,8.46574461 0.840448944,8.10775169 0.840448944,7.73399807 L0.840448944,7.73399807 C0.840448944,6.86490833 1.28158011,6.23448054 2.16384243,5.8427147 L2.16384243,5.8427147 C2.72414173,5.59054358 3.37433979,5.40816983 4.11443662,5.29559344 C4.85453345,5.18301705 5.56954225,5.12672885 6.25946303,5.12672885 Z M17.5302597,18.5818591 L17.5302597,12.3000965 L21.8265845,12.3946607 L21.8265845,20.4731425 C21.634243,20.5361853 21.3645467,20.594725 21.0174956,20.6487617 C20.6704445,20.6982953 20.2962148,20.7230621 19.8948063,20.7230621 L19.8948063,20.7230621 C19.0878081,20.7230621 18.4919674,20.5677067 18.1072843,20.2569958 C17.7226012,19.946285 17.5302597,19.3879061 17.5302597,18.5818591 L17.5302597,18.5818591 Z M21.8265845,2.17497588 L21.8265845,14.7857832 L17.5302597,14.6979736 L17.5302597,0.276937922 C17.7226012,0.213895143 17.9902069,0.153103892 18.3330766,0.0945641685 C18.6801276,0.0315213895 19.0564481,0 19.4620379,0 L19.4620379,0 C20.2899428,0 20.8899648,0.15535542 21.2621039,0.466066259 C21.6384243,0.776777099 21.8265845,1.34641364 21.8265845,2.17497588 L21.8265845,2.17497588 Z M26.5995819,15.940817 L26.5995819,12.3000965 L30.8394586,12.3000965 L30.8394586,15.6301061 C30.8394586,16.2064973 31.0129842,16.6297845 31.3600352,16.8999678 C31.7070863,17.1701512 32.1983935,17.3052428 32.8339569,17.3052428 L32.8339569,17.3052428 C33.1224692,17.3052428 33.4339789,17.2692184 33.7684859,17.1971695 C34.1071743,17.1251206 34.3915053,17.037311 34.6214789,16.9337408 L34.6214789,16.9337408 C34.7761884,17.118366 34.9162632,17.3457703 35.0417033,17.6159537 C35.1671435,17.886137 35.2298636,18.1968479 35.2298636,18.5480862 L35.2298636,18.5480862 C35.2298636,19.2505629 34.9601673,19.8314571 34.4207746,20.2907687 C33.881382,20.7455774 32.9761224,20.9729817 31.7049956,20.9729817 L31.7049956,20.9729817 C30.0909991,20.9729817 28.8365977,20.5789643 27.9417914,19.7909296 C27.046985,19.0028948 26.5995819,17.719524 26.5995819,15.940817 L26.5995819,15.940817 Z M33.84375,9.4766806 L29.3153609,9.4766806 L29.3153609,5.93052428 L34.8535431,5.93052428 C34.9497139,6.09713734 35.0458847,6.33579929 35.1420555,6.64651013 C35.2382262,6.95722097 35.2863116,7.2994532 35.2863116,7.67320682 L35.2863116,7.67320682 C35.2863116,8.2946285 35.1566901,8.74943712 34.8974472,9.03763268 C34.6382042,9.3303313 34.2869718,9.4766806 33.84375,9.4766806 L33.84375,9.4766806 Z M30.8394586,3.78932133 L30.8394586,13.0768736 L26.5995819,13.0768736 L26.5995819,1.92505629 C26.7919234,1.86201351 27.0616197,1.79446767 27.4086708,1.72241878 C27.7557218,1.65036989 28.1215889,1.61434545 28.506272,1.61434545 L28.506272,1.61434545 C29.3341769,1.61434545 29.9300176,1.76970087 30.293794,2.08041171 C30.6575704,2.39112255 30.8394586,2.96075909 30.8394586,3.78932133 L30.8394586,3.78932133 Z M44.7884023,17.5551624 L44.7884023,17.5551624 C45.2316241,17.5551624 45.6706646,17.5078803 46.1055238,17.4133162 C46.5362016,17.318752 46.8477113,17.2106787 47.0400528,17.0890962 L47.0400528,17.0890962 L47.0400528,14.1035703 L44.6190581,14.3534899 C43.962588,14.3940174 43.4420114,14.5381151 43.0573283,14.7857832 C42.6726452,15.0379543 42.4803037,15.4117079 42.4803037,15.9070441 L42.4803037,15.9070441 C42.4803037,16.4023802 42.6642826,16.8009006 43.0322403,17.1026053 C43.3960167,17.4043101 43.981404,17.5551624 44.7884023,17.5551624 Z M44.6190581,5.12672885 L44.6190581,5.12672885 C46.6177377,5.12672885 48.2129181,5.57703442 49.4045995,6.47764555 C50.6004621,7.37825667 51.1983935,8.7719524 51.1983935,10.6587327 L51.1983935,10.6587327 L51.1983935,17.7105179 C51.1983935,18.2283693 51.0729533,18.6471534 50.8220731,18.9668704 C50.5711928,19.2865873 50.2534111,19.5612737 49.868728,19.7909296 L49.868728,19.7909296 C49.2917033,20.1646832 48.5746039,20.4596333 47.7174296,20.67578 C46.8644366,20.8919267 45.8880942,21 44.7884023,21 L44.7884023,21 C42.8273548,21 41.265625,20.5857189 40.103213,19.7571566 C38.9408011,18.9285944 38.3595951,17.6970087 38.3595951,16.0623995 L38.3595951,16.0623995 C38.3595951,14.6529431 38.7630942,13.5699582 39.5700924,12.8134448 C40.3770907,12.0569315 41.5792254,11.5976198 43.1764965,11.4355098 L43.1764965,11.4355098 L47.0149648,10.9964619 L47.0149648,10.6249598 C47.0149648,9.92248311 46.7599032,9.41588935 46.2497799,9.10517851 C45.7396567,8.79446767 45.0121039,8.63911225 44.0671215,8.63911225 L44.0671215,8.63911225 C43.3395687,8.63911225 42.6245599,8.7314249 41.9220951,8.91605018 C41.2196303,9.10067546 40.5882482,9.31907366 40.0279489,9.57124477 L40.0279489,9.57124477 C39.7979754,9.40463171 39.6014525,9.15020907 39.4383803,8.80797684 C39.2753081,8.46574461 39.193772,8.10775169 39.193772,7.73399807 L39.193772,7.73399807 C39.193772,6.86490833 39.6369938,6.23448054 40.5234375,5.8427147 L40.5234375,5.8427147 C41.0795555,5.59054358 41.7276629,5.40816983 42.4677597,5.29559344 C43.2078565,5.18301705 43.924956,5.12672885 44.6190581,5.12672885 Z M66.5898988,5.28208427 L66.5898988,5.28208427 C67.1836488,5.28208427 67.6770467,5.421679 68.0700924,5.70086845 C68.4673195,5.9800579 68.6659331,6.45062721 68.6659331,7.11257639 L68.6659331,7.11257639 C68.6659331,7.48633001 68.5697623,8.06722419 68.3774208,8.85525893 C68.1850792,9.64329366 67.9300176,10.5551624 67.6122359,11.5908652 C67.2944542,12.626568 66.9432218,13.6825346 66.5585387,14.7587649 C66.1738556,15.8349952 65.7891725,16.8436796 65.4044894,17.7848183 C65.0198063,18.73046 64.6727553,19.5139916 64.3633363,20.1354133 L64.3633363,20.1354133 C64.1542694,20.2975233 63.8176717,20.4461242 63.3535431,20.5812158 C62.893596,20.7163075 62.3855634,20.7838533 61.8294454,20.7838533 L61.8294454,20.7838533 C61.1729754,20.7838533 60.6084947,20.6915407 60.1360035,20.5069154 C59.6676937,20.3177871 59.337368,20.02734 59.1450264,19.6355741 L59.1450264,19.6355741 C58.9317782,19.1987777 58.6725352,18.5886137 58.3672975,17.805082 C58.0578785,17.0170473 57.7296435,16.1209392 57.3825924,15.1167578 C57.0355414,14.1125764 56.690581,13.070119 56.3477113,11.9893857 C56.0006602,10.9131554 55.6828785,9.87745256 55.3943662,8.88227726 C55.1058539,7.89160502 54.8737896,7.02251528 54.6981734,6.27500804 L54.6981734,6.27500804 C54.9490537,6.0048247 55.2710167,5.77291734 55.6640625,5.57928594 C56.0612896,5.3811515 56.4898768,5.28208427 56.9498239,5.28208427 L56.9498239,5.28208427 C57.5477553,5.28208427 58.0390625,5.41717594 58.4237456,5.68735928 C58.8084287,5.95303956 59.0864877,6.45963332 59.2579225,7.20714056 L59.2579225,7.20714056 L60.556228,12.1447411 C60.7109375,12.7256353 60.8698283,13.3065294 61.0329005,13.8874236 C61.1959727,14.4683178 61.3444102,15.0064329 61.478213,15.5017691 C61.6161972,16.0016082 61.7332746,16.427147 61.8294454,16.7783853 L61.8294454,16.7783853 L61.9423415,16.7783853 C62.4022887,15.0987456 62.8685079,13.3020264 63.3409991,11.3882277 C63.8134903,9.46992602 64.2316241,7.5989064 64.5954005,5.77516886 L64.5954005,5.77516886 C65.1724252,5.4464458 65.8372579,5.28208427 66.5898988,5.28208427 Z M78.0551276,17.5551624 L78.0551276,17.5551624 C78.4983495,17.5551624 78.9352993,17.5078803 79.3659771,17.4133162 C79.8008363,17.318752 80.1144366,17.2106787 80.3067782,17.0890962 L80.3067782,17.0890962 L80.3067782,14.1035703 L77.8795114,14.3534899 C77.2272227,14.3940174 76.7087368,14.5381151 76.3240537,14.7857832 C75.9393706,15.0379543 75.747029,15.4117079 75.747029,15.9070441 L75.747029,15.9070441 C75.747029,16.4023802 75.9289173,16.8009006 76.2926937,17.1026053 C76.6606514,17.4043101 77.2481294,17.5551624 78.0551276,17.5551624 Z M77.8795114,5.12672885 L77.8795114,5.12672885 C79.8823724,5.12672885 81.4796435,5.57703442 82.6713248,6.47764555 C83.8630062,7.37825667 84.4588468,8.7719524 84.4588468,10.6587327 L84.4588468,10.6587327 L84.4588468,17.7105179 C84.4588468,18.2283693 84.3334067,18.6471534 84.0825264,18.9668704 C83.8358275,19.2865873 83.5201364,19.5612737 83.1354533,19.7909296 L83.1354533,19.7909296 C82.5584287,20.1646832 81.8413292,20.4596333 80.9841549,20.67578 C80.1269806,20.8919267 79.1506382,21 78.0551276,21 L78.0551276,21 C76.0940801,21 74.5302597,20.5857189 73.3636664,19.7571566 C72.2012544,18.9285944 71.6200484,17.6970087 71.6200484,16.0623995 L71.6200484,16.0623995 C71.6200484,14.6529431 72.0235475,13.5699582 72.8305458,12.8134448 C73.6417254,12.0569315 74.84386,11.5976198 76.4369498,11.4355098 L76.4369498,11.4355098 L80.2754181,10.9964619 L80.2754181,10.6249598 C80.2754181,9.92248311 80.0203565,9.41588935 79.5102333,9.10517851 C79.00011,8.79446767 78.2746479,8.63911225 77.3338468,8.63911225 L77.3338468,8.63911225 C76.6021127,8.63911225 75.8850132,8.7314249 75.1825484,8.91605018 C74.4800836,9.10067546 73.8507923,9.31907366 73.2946743,9.57124477 L73.2946743,9.57124477 C73.0647007,9.40463171 72.8681778,9.15020907 72.7051056,8.80797684 C72.5420335,8.46574461 72.4604974,8.10775169 72.4604974,7.73399807 L72.4604974,7.73399807 C72.4604974,6.86490833 72.9016285,6.23448054 73.7838908,5.8427147 L73.7838908,5.8427147 C74.3441901,5.59054358 74.9943882,5.40816983 75.734485,5.29559344 C76.4745819,5.18301705 77.1895907,5.12672885 77.8795114,5.12672885 Z M93.2710167,9.59826311 L93.2710167,9.59826311 L93.2710167,13.4821486 L89.0060519,13.4821486 L89.0060519,9.03763268 C89.0060519,8.46124156 89.1356734,7.97040849 89.3949164,7.56513348 C89.6541593,7.15985848 90.0137544,6.80186555 90.4737016,6.49115471 L90.4737016,6.49115471 C91.109265,6.07687359 91.8744498,5.75040206 92.7692562,5.51174011 C93.6640625,5.27307816 94.6006822,5.15374719 95.5791153,5.15374719 L95.5791153,5.15374719 C97.5443442,5.15374719 98.5269586,5.85847539 98.5269586,7.26793181 L98.5269586,7.26793181 C98.5269586,7.60115793 98.4830546,7.91186877 98.3952465,8.20006433 C98.3074384,8.49276295 98.2070863,8.74268253 98.0941901,8.94982309 L98.0941901,8.94982309 C97.9018486,8.90479254 97.665603,8.86651656 97.3854533,8.83499518 C97.1053037,8.80797684 96.8021567,8.79446767 96.4760123,8.79446767 L96.4760123,8.79446767 C95.8989877,8.79446767 95.321963,8.86651656 94.7449384,9.01061435 C94.1679137,9.15471213 93.6766065,9.35059505 93.2710167,9.59826311 Z M89.0060519,18.5818591 L89.0060519,12.3000965 L93.2710167,12.3946607 L93.2710167,20.4731425 C93.0786752,20.5361853 92.8110695,20.594725 92.4681998,20.6487617 C92.1211488,20.6982953 91.7448283,20.7230621 91.3392386,20.7230621 L91.3392386,20.7230621 C90.5322403,20.7230621 89.940581,20.5677067 89.5642606,20.2569958 C89.1921215,19.946285 89.0060519,19.3879061 89.0060519,18.5818591 L89.0060519,18.5818591 Z M107.596281,17.5551624 L107.596281,17.5551624 C108.039503,17.5551624 108.478543,17.5078803 108.913402,17.4133162 C109.34408,17.318752 109.65559,17.2106787 109.847931,17.0890962 L109.847931,17.0890962 L109.847931,14.1035703 L107.426937,14.3534899 C106.770467,14.3940174 106.24989,14.5381151 105.865207,14.7857832 C105.480524,15.0379543 105.288182,15.4117079 105.288182,15.9070441 L105.288182,15.9070441 C105.288182,16.4023802 105.472161,16.8009006 105.840119,17.1026053 C106.203895,17.4043101 106.789283,17.5551624 107.596281,17.5551624 Z M107.426937,5.12672885 L107.426937,5.12672885 C109.425616,5.12672885 111.020797,5.57703442 112.212478,6.47764555 C113.404159,7.37825667 114,8.7719524 114,10.6587327 L114,10.6587327 L114,17.7105179 C114,18.2283693 113.876651,18.6471534 113.629952,18.9668704 C113.379071,19.2865873 113.06129,19.5612737 112.676607,19.7909296 L112.676607,19.7909296 C112.099582,20.1646832 111.382482,20.4596333 110.525308,20.67578 C109.668134,20.8919267 108.691791,21 107.596281,21 L107.596281,21 C105.635233,21 104.073504,20.5857189 102.911092,19.7571566 C101.744498,18.9285944 101.161202,17.6970087 101.161202,16.0623995 L101.161202,16.0623995 C101.161202,14.6529431 101.566791,13.5699582 102.377971,12.8134448 C103.184969,12.0569315 104.387104,11.5976198 105.984375,11.4355098 L105.984375,11.4355098 L109.816571,10.9964619 L109.816571,10.6249598 C109.816571,9.92248311 109.56151,9.41588935 109.051386,9.10517851 C108.545445,8.79446767 107.819982,8.63911225 106.875,8.63911225 L106.875,8.63911225 C106.143266,8.63911225 105.426166,8.7314249 104.723702,8.91605018 C104.025418,9.10067546 103.396127,9.31907366 102.835827,9.57124477 L102.835827,9.57124477 C102.605854,9.40463171 102.409331,9.15020907 102.246259,8.80797684 C102.083187,8.46574461 102.001651,8.10775169 102.001651,7.73399807 L102.001651,7.73399807 C102.001651,6.86490833 102.442782,6.23448054 103.325044,5.8427147 L103.325044,5.8427147 C103.885343,5.59054358 104.535541,5.40816983 105.275638,5.29559344 C106.015735,5.18301705 106.732835,5.12672885 107.426937,5.12672885 Z"></path>
                </g>
            </g>
        </g>
    </g>
</svg>